<?xml version="1.0" encoding="UTF-8" standalone="no"?>
<!DOCTYPE svg PUBLIC "-//W3C//DTD SVG 1.1//EN"
 "http://www.w3.org/Graphics/SVG/1.1/DTD/svg11.dtd">
<!-- Generated by graphviz version 14.0.5 (20251129.0259)
 -->
<!-- Title: FSM Pages: 1 -->
<svg width="7347pt" height="545pt"
 viewBox="0.00 0.00 7347.00 545.00" xmlns="http://www.w3.org/2000/svg" xmlns:xlink="http://www.w3.org/1999/xlink">
<g id="graph0" class="graph" transform="scale(1 1) rotate(0) translate(4 540.86)">
<title>FSM</title>
<polygon fill="white" stroke="none" points="-4,4 -4,-540.86 7343.05,-540.86 7343.05,4 -4,4"/>
<!-- start -->
<g id="node1" class="node">
<title>start</title>
<ellipse fill="black" stroke="black" cx="1.8" cy="-285.13" rx="1.8" ry="1.8"/>
</g>
<!-- q0 -->
<g id="node2" class="node">
<title>q0</title>
<ellipse fill="none" stroke="black" cx="67.6" cy="-285.13" rx="27" ry="18"/>
<text xml:space="preserve" text-anchor="middle" x="67.6" y="-280.08" font-family="Times New Roman,serif" font-size="14.00">q0</text>
</g>
<!-- start&#45;&gt;q0 -->
<g id="edge1" class="edge">
<title>start&#45;&gt;q0</title>
<path fill="none" stroke="black" d="M3.91,-285.13C7.21,-285.13 17.46,-285.13 28.73,-285.13"/>
<polygon fill="black" stroke="black" points="28.62,-288.63 38.62,-285.13 28.62,-281.63 28.62,-288.63"/>
</g>
<!-- q14 -->
<g id="node3" class="node">
<title>q14</title>
<ellipse fill="none" stroke="black" cx="1147.09" cy="-434.13" rx="24.74" ry="24.74"/>
<ellipse fill="none" stroke="black" cx="1147.09" cy="-434.13" rx="28.74" ry="28.74"/>
<text xml:space="preserve" text-anchor="middle" x="1147.09" y="-429.08" font-family="Times New Roman,serif" font-size="14.00">q14</text>
</g>
<!-- q0&#45;&gt;q14 -->
<g id="edge10" class="edge">
<title>q0&#45;&gt;q14</title>
<path fill="none" stroke="black" d="M70.32,-303.42C73.72,-328 83.68,-370.94 112.6,-391.13 435.53,-616.58 963.64,-487.31 1108.39,-445.63"/>
<polygon fill="black" stroke="black" points="1109.22,-449.03 1117.84,-442.87 1107.26,-442.31 1109.22,-449.03"/>
<text xml:space="preserve" text-anchor="middle" x="606.48" y="-523.56" font-family="Times New Roman,serif" font-size="14.00">&#39;0&#39;,&#39;1&#39;,&#39;2&#39;,&#39;3&#39;,&#39;4&#39;,&#39;5&#39;,&#39;6&#39;,&#39;7&#39;,&#39;8&#39;,&#39;9&#39;,&#39;A&#39;,&#39;B&#39;,&#39;C&#39;,&#39;D&#39;,&#39;E&#39;,&#39;F&#39;,&#39;G&#39;,&#39;H&#39;,&#39;I&#39;,&#39;J&#39;,&#39;K&#39;,&#39;L&#39;,&#39;M&#39;,&#39;N&#39;,&#39;O&#39;,&#39;P&#39;,&#39;Q&#39;,&#39;R&#39;,&#39;S&#39;,&#39;T&#39;,&#39;U&#39;,&#39;V&#39;,&#39;W&#39;,&#39;X&#39;,&#39;Y&#39;,&#39;Z&#39;,&#39;_&#39;,&#39;a&#39;,&#39;b&#39;,&#39;c&#39;,&#39;d&#39;,&#39;e&#39;,&#39;f&#39;,&#39;g&#39;,&#39;h&#39;,&#39;i&#39;,&#39;j&#39;,&#39;k&#39;,&#39;l&#39;,&#39;m&#39;,&#39;n&#39;,&#39;o&#39;,&#39;p&#39;,&#39;q&#39;,&#39;r&#39;,&#39;s&#39;,&#39;t&#39;,&#39;u&#39;,&#39;v&#39;,&#39;w&#39;,&#39;x&#39;,&#39;y&#39;,&#39;z&#39;</text>
</g>
<!-- q15 -->
<g id="node4" class="node">
<title>q15</title>
<ellipse fill="none" stroke="black" cx="7310.31" cy="-217.13" rx="24.74" ry="24.74"/>
<ellipse fill="none" stroke="black" cx="7310.31" cy="-217.13" rx="28.74" ry="28.74"/>
<text xml:space="preserve" text-anchor="middle" x="7310.31" y="-212.08" font-family="Times New Roman,serif" font-size="14.00">q15</text>
</g>
<!-- q0&#45;&gt;q15 -->
<g id="edge2" class="edge">
<title>q0&#45;&gt;q15</title>
<path fill="none" stroke="black" d="M77.63,-302.32C85.16,-314.7 97.15,-330.52 112.6,-338.13 215.68,-388.92 1031.17,-377.13 1146.09,-377.13 1146.09,-377.13 1146.09,-377.13 7206.09,-377.13 7263.19,-377.13 7290.23,-304.27 7301.78,-256.88"/>
<polygon fill="black" stroke="black" points="7305.17,-257.74 7303.99,-247.21 7298.35,-256.18 7305.17,-257.74"/>
<text xml:space="preserve" text-anchor="middle" x="4199.39" y="-380.33" font-family="Times New Roman,serif" font-size="14.00">0x01,0x02,0x03,0x04,0x05,0x06,0x07,0x08,0x0E,0x0F,0x10,0x11,0x12,0x13,0x14,0x15,0x16,0x17,0x18,0x19,0x1A,0x1B,0x1C,0x1D,0x1E,0x1F,&#39;!&#39;,&#39;&quot;&#39;,&#39;$&#39;,&#39;%&#39;,&#39;&amp;&#39;,&#39;&#39;&#39;,&#39;(&#39;,&#39;)&#39;,&#39;,&#39;,&#39;.&#39;,&#39;/&#39;,&#39;;&#39;,&#39;&lt;&#39;,&#39;&gt;&#39;,&#39;?&#39;,&#39;@&#39;,&#39;[&#39;,&#39;&#39;,&#39;]&#39;,&#39;^&#39;,&#39;`&#39;,&#39;{&#39;,&#39;|&#39;,&#39;}&#39;,&#39;~&#39;,0x7F,0x80,0x81,0x82,0x83,0x84,0x85,0x86,0x87,0x88,0x89,0x8A,0x8B,0x8C,0x8D,0x8E,0x8F,0x90,0x91,0x92,0x93,0x94,0x95,0x96,0x97,0x98,0x99,0x9A,0x9B,0x9C,0x9D,0x9E,0x9F,0xA0,0xA1,0xA2,0xA3,0xA4,0xA5,0xA6,0xA7,0xA8,0xA9,0xAA,0xAB,0xAC,0xAD,0xAE,0xAF,0xB0,0xB1,0xB2,0xB3,0xB4,0xB5,0xB6,0xB7,0xB8,0xB9,0xBA,0xBB,0xBC,0xBD,0xBE,0xBF,0xC0,0xC1,0xC2,0xC3,0xC4,0xC5,0xC6,0xC7,0xC8,0xC9,0xCA,0xCB,0xCC,0xCD,0xCE,0xCF,0xD0,0xD1,0xD2,0xD3,0xD4,0xD5,0xD6,0xD7,0xD8,0xD9,0xDA,0xDB,0xDC,0xDD,0xDE,0xDF,0xE0,0xE1,0xE2,0xE3,0xE4,0xE5,0xE6,0xE7,0xE8,0xE9,0xEA,0xEB,0xEC,0xED,0xEE,0xEF,0xF0,0xF1,0xF2,0xF3,0xF4,0xF5,0xF6,0xF7,0xF8,0xF9,0xFA,0xFB,0xFC,0xFD,0xFE,0xFF</text>
</g>
<!-- q2 -->
<g id="node6" class="node">
<title>q2</title>
<ellipse fill="none" stroke="black" cx="1330.48" cy="-331.13" rx="20.13" ry="20.13"/>
<text xml:space="preserve" text-anchor="middle" x="1330.48" y="-326.08" font-family="Times New Roman,serif" font-size="14.00">q2</text>
</g>
<!-- q0&#45;&gt;q2 -->
<g id="edge6" class="edge">
<title>q0&#45;&gt;q2</title>
<path fill="none" stroke="black" d="M91.59,-293.79C98.27,-295.94 105.64,-297.96 112.6,-299.13 578.87,-377.81 1159.66,-343.4 1298.6,-333.48"/>
<polygon fill="black" stroke="black" points="1298.73,-336.98 1308.45,-332.76 1298.22,-330 1298.73,-336.98"/>
<text xml:space="preserve" text-anchor="middle" x="1147.09" y="-346.61" font-family="Times New Roman,serif" font-size="14.00">&#39;+&#39;</text>
</g>
<!-- q3 -->
<g id="node7" class="node">
<title>q3</title>
<ellipse fill="none" stroke="black" cx="1447" cy="-285.13" rx="20.13" ry="20.13"/>
<text xml:space="preserve" text-anchor="middle" x="1447" y="-280.08" font-family="Times New Roman,serif" font-size="14.00">q3</text>
</g>
<!-- q0&#45;&gt;q3 -->
<g id="edge8" class="edge">
<title>q0&#45;&gt;q3</title>
<path fill="none" stroke="black" d="M94.85,-285.13C215.24,-285.13 726.6,-285.13 1146.09,-285.13 1146.09,-285.13 1146.09,-285.13 1331.48,-285.13 1359.79,-285.13 1392.05,-285.13 1415.09,-285.13"/>
<polygon fill="black" stroke="black" points="1415.04,-288.63 1425.04,-285.13 1415.04,-281.63 1415.04,-288.63"/>
<text xml:space="preserve" text-anchor="middle" x="1213.96" y="-288.33" font-family="Times New Roman,serif" font-size="14.00">&#39;&#45;&#39;</text>
</g>
<!-- q4 -->
<g id="node8" class="node">
<title>q4</title>
<ellipse fill="none" stroke="black" cx="6951.77" cy="-240.13" rx="20.13" ry="20.13"/>
<text xml:space="preserve" text-anchor="middle" x="6951.77" y="-235.08" font-family="Times New Roman,serif" font-size="14.00">q4</text>
</g>
<!-- q0&#45;&gt;q4 -->
<g id="edge4" class="edge">
<title>q0&#45;&gt;q4</title>
<path fill="none" stroke="black" d="M94.64,-282.54C100.54,-282.02 106.78,-281.51 112.6,-281.13 571.31,-251.2 686.4,-240.13 1146.09,-240.13 1146.09,-240.13 1146.09,-240.13 1448,-240.13 3750.62,-240.13 6595.22,-240.13 6920.12,-240.13"/>
<polygon fill="black" stroke="black" points="6919.89,-243.63 6929.89,-240.13 6919.89,-236.63 6919.89,-243.63"/>
<text xml:space="preserve" text-anchor="middle" x="1272.22" y="-243.33" font-family="Times New Roman,serif" font-size="14.00">&#39;*&#39;</text>
</g>
<!-- q6 -->
<g id="node10" class="node">
<title>q6</title>
<ellipse fill="none" stroke="black" cx="1213.96" cy="-198.13" rx="20.13" ry="20.13"/>
<text xml:space="preserve" text-anchor="middle" x="1213.96" y="-193.08" font-family="Times New Roman,serif" font-size="14.00">q6</text>
</g>
<!-- q0&#45;&gt;q6 -->
<g id="edge13" class="edge">
<title>q0&#45;&gt;q6</title>
<path fill="none" stroke="black" d="M73.45,-267.07C79.38,-248.94 91.35,-221.99 112.6,-209.63 160.02,-182.05 1008.49,-194.71 1182.09,-197.6"/>
<polygon fill="black" stroke="black" points="1181.83,-201.09 1191.88,-197.76 1181.94,-194.1 1181.83,-201.09"/>
<text xml:space="preserve" text-anchor="middle" x="606.48" y="-212.83" font-family="Times New Roman,serif" font-size="14.00">&#39;=&#39;</text>
</g>
<!-- q7 -->
<g id="node11" class="node">
<title>q7</title>
<ellipse fill="none" stroke="black" cx="1147.09" cy="-151.13" rx="20.13" ry="20.13"/>
<text xml:space="preserve" text-anchor="middle" x="1147.09" y="-146.08" font-family="Times New Roman,serif" font-size="14.00">q7</text>
</g>
<!-- q0&#45;&gt;q7 -->
<g id="edge3" class="edge">
<title>q0&#45;&gt;q7</title>
<path fill="none" stroke="black" d="M69.07,-266.78C70.9,-238.9 78.91,-186.61 112.6,-162.63 440.05,70.42 985.68,-95.55 1117.01,-140.69"/>
<polygon fill="black" stroke="black" points="1115.73,-143.95 1126.32,-143.94 1118.03,-137.34 1115.73,-143.95"/>
<text xml:space="preserve" text-anchor="middle" x="606.48" y="-165.83" font-family="Times New Roman,serif" font-size="14.00">&#39;#&#39;</text>
</g>
<!-- q14&#45;&gt;q14 -->
<g id="edge11" class="edge">
<title>q14&#45;&gt;q14</title>
<path fill="none" stroke="black" d="M1134.66,-460.56C1133.8,-471.55 1137.95,-480.87 1147.09,-480.87 1152.8,-480.87 1156.56,-477.23 1158.37,-471.81"/>
<polygon fill="black" stroke="black" points="1161.83,-472.37 1159.36,-462.06 1154.87,-471.66 1161.83,-472.37"/>
<text xml:space="preserve" text-anchor="middle" x="1147.09" y="-484.07" font-family="Times New Roman,serif" font-size="14.00">&#39;0&#39;,&#39;1&#39;,&#39;2&#39;,&#39;3&#39;,&#39;4&#39;,&#39;5&#39;,&#39;6&#39;,&#39;7&#39;,&#39;8&#39;,&#39;9&#39;,&#39;A&#39;,&#39;B&#39;,&#39;C&#39;,&#39;D&#39;,&#39;E&#39;,&#39;F&#39;,&#39;G&#39;,&#39;H&#39;,&#39;I&#39;,&#39;J&#39;,&#39;K&#39;,&#39;L&#39;,&#39;M&#39;,&#39;N&#39;,&#39;O&#39;,&#39;P&#39;,&#39;Q&#39;,&#39;R&#39;,&#39;S&#39;,&#39;T&#39;,&#39;U&#39;,&#39;V&#39;,&#39;W&#39;,&#39;X&#39;,&#39;Y&#39;,&#39;Z&#39;,&#39;_&#39;,&#39;a&#39;,&#39;b&#39;,&#39;c&#39;,&#39;d&#39;,&#39;e&#39;,&#39;f&#39;,&#39;g&#39;,&#39;h&#39;,&#39;i&#39;,&#39;j&#39;,&#39;k&#39;,&#39;l&#39;,&#39;m&#39;,&#39;n&#39;,&#39;o&#39;,&#39;p&#39;,&#39;q&#39;,&#39;r&#39;,&#39;s&#39;,&#39;t&#39;,&#39;u&#39;,&#39;v&#39;,&#39;w&#39;,&#39;x&#39;,&#39;y&#39;,&#39;z&#39;</text>
</g>
<!-- q1 -->
<g id="node5" class="node">
<title>q1</title>
<ellipse fill="none" stroke="black" cx="7205.09" cy="-78.13" rx="20.13" ry="20.13"/>
<text xml:space="preserve" text-anchor="middle" x="7205.09" y="-73.08" font-family="Times New Roman,serif" font-size="14.00">q1</text>
</g>
<!-- q1&#45;&gt;q15 -->
<g id="edge12" class="edge">
<title>q1&#45;&gt;q15</title>
<path fill="none" stroke="black" d="M7220.96,-90.58C7233.31,-101.4 7250.87,-117.92 7263.57,-134.63 7274.45,-148.93 7284.4,-166.12 7292.22,-181.1"/>
<polygon fill="black" stroke="black" points="7288.95,-182.38 7296.6,-189.71 7295.19,-179.21 7288.95,-182.38"/>
<text xml:space="preserve" text-anchor="middle" x="7255.7" y="-137.83" font-family="Times New Roman,serif" font-size="14.00">&#39;:&#39;</text>
</g>
<!-- q2&#45;&gt;q15 -->
<g id="edge7" class="edge">
<title>q2&#45;&gt;q15</title>
<path fill="none" stroke="black" d="M1350.93,-331.13C1373.72,-331.13 1412.6,-331.13 1446,-331.13 1446,-331.13 1446,-331.13 7206.09,-331.13 7248.37,-331.13 7277.84,-287.51 7294.17,-254.23"/>
<polygon fill="black" stroke="black" points="7297.31,-255.77 7298.37,-245.23 7290.97,-252.81 7297.31,-255.77"/>
<text xml:space="preserve" text-anchor="middle" x="7014.64" y="-334.33" font-family="Times New Roman,serif" font-size="14.00">&#39;+&#39;</text>
</g>
<!-- q3&#45;&gt;q15 -->
<g id="edge9" class="edge">
<title>q3&#45;&gt;q15</title>
<path fill="none" stroke="black" d="M1467.37,-285.13C1730.31,-285.13 4618.54,-285.13 6950.77,-285.13 6950.77,-285.13 6950.77,-285.13 7206.09,-285.13 7236,-285.13 7263.93,-264.98 7283.18,-246.61"/>
<polygon fill="black" stroke="black" points="7285.48,-249.27 7290.07,-239.72 7280.52,-244.32 7285.48,-249.27"/>
<text xml:space="preserve" text-anchor="middle" x="7061.87" y="-288.33" font-family="Times New Roman,serif" font-size="14.00">&#39;&#45;&#39;</text>
</g>
<!-- q4&#45;&gt;q15 -->
<g id="edge5" class="edge">
<title>q4&#45;&gt;q15</title>
<path fill="none" stroke="black" d="M6972.3,-240.13C6993.95,-240.13 7029.91,-240.13 7060.87,-240.13 7060.87,-240.13 7060.87,-240.13 7206.09,-240.13 7228.34,-240.13 7252.66,-234.97 7272.1,-229.55"/>
<polygon fill="black" stroke="black" points="7272.88,-232.97 7281.48,-226.78 7270.9,-226.25 7272.88,-232.97"/>
<text xml:space="preserve" text-anchor="middle" x="7109.11" y="-243.33" font-family="Times New Roman,serif" font-size="14.00">&#39;*&#39;</text>
</g>
<!-- q5 -->
<g id="node9" class="node">
<title>q5</title>
<ellipse fill="none" stroke="black" cx="7205.09" cy="-20.13" rx="20.13" ry="20.13"/>
<text xml:space="preserve" text-anchor="middle" x="7205.09" y="-15.08" font-family="Times New Roman,serif" font-size="14.00">q5</text>
</g>
<!-- q5&#45;&gt;q15 -->
<g id="edge14" class="edge">
<title>q5&#45;&gt;q15</title>
<path fill="none" stroke="black" d="M7218.88,-35.3C7222.49,-39.71 7226.37,-44.56 7229.82,-49.13 7245.65,-70.09 7251.29,-74.42 7263.57,-97.63 7277.39,-123.73 7289.19,-154.95 7297.34,-178.94"/>
<polygon fill="black" stroke="black" points="7293.98,-179.92 7300.46,-188.3 7300.62,-177.71 7293.98,-179.92"/>
<text xml:space="preserve" text-anchor="middle" x="7255.7" y="-100.83" font-family="Times New Roman,serif" font-size="14.00">&#39;=&#39;</text>
</g>
<!-- q6&#45;&gt;q15 -->
<g id="edge15" class="edge">
<title>q6&#45;&gt;q15</title>
<path fill="none" stroke="black" d="M1234.4,-197.04C1257.18,-195.85 1296.06,-194.13 1329.48,-194.13 1329.48,-194.13 1329.48,-194.13 7206.09,-194.13 7228.34,-194.13 7252.66,-199.29 7272.1,-204.72"/>
<polygon fill="black" stroke="black" points="7270.9,-208.01 7281.48,-207.48 7272.88,-201.3 7270.9,-208.01"/>
<text xml:space="preserve" text-anchor="middle" x="6951.77" y="-197.33" font-family="Times New Roman,serif" font-size="14.00">&#39;=&#39;</text>
</g>
<!-- q8 -->
<g id="node12" class="node">
<title>q8</title>
<ellipse fill="none" stroke="black" cx="1272.22" cy="-146.13" rx="20.13" ry="20.13"/>
<text xml:space="preserve" text-anchor="middle" x="1272.22" y="-141.08" font-family="Times New Roman,serif" font-size="14.00">q8</text>
</g>
<!-- q7&#45;&gt;q8 -->
<g id="edge16" class="edge">
<title>q7&#45;&gt;q8</title>
<path fill="none" stroke="black" d="M1167.6,-150.34C1187.14,-149.55 1217.52,-148.31 1240.33,-147.39"/>
<polygon fill="black" stroke="black" points="1240.44,-150.88 1250.29,-146.98 1240.15,-143.89 1240.44,-150.88"/>
<text xml:space="preserve" text-anchor="middle" x="1213.96" y="-152.43" font-family="Times New Roman,serif" font-size="14.00">&#39;P&#39;</text>
</g>
<!-- q9 -->
<g id="node13" class="node">
<title>q9</title>
<ellipse fill="none" stroke="black" cx="1388.74" cy="-143.13" rx="20.13" ry="20.13"/>
<text xml:space="preserve" text-anchor="middle" x="1388.74" y="-138.08" font-family="Times New Roman,serif" font-size="14.00">q9</text>
</g>
<!-- q8&#45;&gt;q9 -->
<g id="edge21" class="edge">
<title>q8&#45;&gt;q9</title>
<path fill="none" stroke="black" d="M1292.65,-145.62C1310.25,-145.16 1336.49,-144.47 1356.95,-143.94"/>
<polygon fill="black" stroke="black" points="1356.8,-147.44 1366.71,-143.68 1356.62,-140.45 1356.8,-147.44"/>
<text xml:space="preserve" text-anchor="middle" x="1330.48" y="-148.28" font-family="Times New Roman,serif" font-size="14.00">&#39;r&#39;</text>
</g>
<!-- q10 -->
<g id="node14" class="node">
<title>q10</title>
<ellipse fill="none" stroke="black" cx="4199.39" cy="-141.13" rx="24.74" ry="24.74"/>
<text xml:space="preserve" text-anchor="middle" x="4199.39" y="-136.08" font-family="Times New Roman,serif" font-size="14.00">q10</text>
</g>
<!-- q9&#45;&gt;q10 -->
<g id="edge20" class="edge">
<title>q9&#45;&gt;q10</title>
<path fill="none" stroke="black" d="M1409.18,-143.12C1640.07,-142.95 3855.97,-141.37 4163.13,-141.16"/>
<polygon fill="black" stroke="black" points="4162.9,-144.66 4172.89,-141.15 4162.89,-137.66 4162.9,-144.66"/>
<text xml:space="preserve" text-anchor="middle" x="1447" y="-146.29" font-family="Times New Roman,serif" font-size="14.00">&#39;o&#39;</text>
</g>
<!-- q11 -->
<g id="node15" class="node">
<title>q11</title>
<ellipse fill="none" stroke="black" cx="7014.64" cy="-141.13" rx="24.74" ry="24.74"/>
<text xml:space="preserve" text-anchor="middle" x="7014.64" y="-136.08" font-family="Times New Roman,serif" font-size="14.00">q11</text>
</g>
<!-- q10&#45;&gt;q11 -->
<g id="edge18" class="edge">
<title>q10&#45;&gt;q11</title>
<path fill="none" stroke="black" d="M4224.28,-141.13C4477.97,-141.13 6672.12,-141.13 6978.23,-141.13"/>
<polygon fill="black" stroke="black" points="6977.97,-144.63 6987.97,-141.13 6977.97,-137.63 6977.97,-144.63"/>
<text xml:space="preserve" text-anchor="middle" x="6951.77" y="-144.33" font-family="Times New Roman,serif" font-size="14.00">&#39;g&#39;</text>
</g>
<!-- q12 -->
<g id="node16" class="node">
<title>q12</title>
<ellipse fill="none" stroke="black" cx="7109.11" cy="-141.13" rx="24.74" ry="24.74"/>
<text xml:space="preserve" text-anchor="middle" x="7109.11" y="-136.08" font-family="Times New Roman,serif" font-size="14.00">q12</text>
</g>
<!-- q11&#45;&gt;q12 -->
<g id="edge22" class="edge">
<title>q11&#45;&gt;q12</title>
<path fill="none" stroke="black" d="M7039.45,-141.13C7049.62,-141.13 7061.69,-141.13 7072.86,-141.13"/>
<polygon fill="black" stroke="black" points="7072.54,-144.63 7082.54,-141.13 7072.54,-137.63 7072.54,-144.63"/>
<text xml:space="preserve" text-anchor="middle" x="7061.87" y="-144.33" font-family="Times New Roman,serif" font-size="14.00">&#39;r&#39;</text>
</g>
<!-- q13 -->
<g id="node17" class="node">
<title>q13</title>
<ellipse fill="none" stroke="black" cx="7205.09" cy="-141.13" rx="24.74" ry="24.74"/>
<text xml:space="preserve" text-anchor="middle" x="7205.09" y="-136.08" font-family="Times New Roman,serif" font-size="14.00">q13</text>
</g>
<!-- q12&#45;&gt;q13 -->
<g id="edge17" class="edge">
<title>q12&#45;&gt;q13</title>
<path fill="none" stroke="black" d="M7134.31,-141.13C7144.72,-141.13 7157.11,-141.13 7168.53,-141.13"/>
<polygon fill="black" stroke="black" points="7168.45,-144.63 7178.45,-141.13 7168.45,-137.63 7168.45,-144.63"/>
<text xml:space="preserve" text-anchor="middle" x="7157.1" y="-144.33" font-family="Times New Roman,serif" font-size="14.00">&#39;a&#39;</text>
</g>
<!-- q13&#45;&gt;q15 -->
<g id="edge19" class="edge">
<title>q13&#45;&gt;q15</title>
<path fill="none" stroke="black" d="M7229.49,-147.4C7240.47,-151.04 7253.35,-156.36 7263.57,-163.63 7271.73,-169.43 7279.35,-177 7285.95,-184.61"/>
<polygon fill="black" stroke="black" points="7283.18,-186.77 7292.22,-192.29 7288.6,-182.33 7283.18,-186.77"/>
<text xml:space="preserve" text-anchor="middle" x="7255.7" y="-166.83" font-family="Times New Roman,serif" font-size="14.00">&#39;m&#39;</text>
</g>
</g>
</svg>
