<?xml version="1.0" encoding="UTF-8" standalone="no"?>
<!DOCTYPE svg PUBLIC "-//W3C//DTD SVG 1.1//EN"
 "http://www.w3.org/Graphics/SVG/1.1/DTD/svg11.dtd">
<!-- Generated by graphviz version 14.0.5 (20251129.0259)
 -->
<!-- Title: FSM Pages: 1 -->
<svg width="1376pt" height="1006pt"
 viewBox="0.00 0.00 1376.00 1006.00" xmlns="http://www.w3.org/2000/svg" xmlns:xlink="http://www.w3.org/1999/xlink">
<g id="graph0" class="graph" transform="scale(1 1) rotate(0) translate(4 1001.63)">
<title>FSM</title>
<polygon fill="white" stroke="none" points="-4,4 -4,-1001.63 1372.01,-1001.63 1372.01,4 -4,4"/>
<!-- start -->
<g id="node1" class="node">
<title>start</title>
<ellipse fill="black" stroke="black" cx="1.8" cy="-588.13" rx="1.8" ry="1.8"/>
</g>
<!-- q0 -->
<g id="node2" class="node">
<title>q0</title>
<ellipse fill="none" stroke="black" cx="67.6" cy="-588.13" rx="27" ry="18"/>
<text xml:space="preserve" text-anchor="middle" x="67.6" y="-583.08" font-family="Times New Roman,serif" font-size="14.00">q0</text>
</g>
<!-- start&#45;&gt;q0 -->
<g id="edge1" class="edge">
<title>start&#45;&gt;q0</title>
<path fill="none" stroke="black" d="M3.91,-588.13C7.21,-588.13 17.46,-588.13 28.73,-588.13"/>
<polygon fill="black" stroke="black" points="28.62,-591.63 38.62,-588.13 28.62,-584.63 28.62,-591.63"/>
</g>
<!-- q51 -->
<g id="node3" class="node">
<title>q51</title>
<ellipse fill="none" stroke="black" cx="1339.27" cy="-505.13" rx="24.74" ry="24.74"/>
<ellipse fill="none" stroke="black" cx="1339.27" cy="-505.13" rx="28.74" ry="28.74"/>
<text xml:space="preserve" text-anchor="middle" x="1339.27" y="-500.08" font-family="Times New Roman,serif" font-size="14.00">q51</text>
</g>
<!-- q0&#45;&gt;q51 -->
<g id="edge2" class="edge">
<title>q0&#45;&gt;q51</title>
<path fill="none" stroke="black" d="M69.59,-606.42C73.12,-668 86.38,-867.22 112.6,-925.13 127.61,-958.28 135.95,-981.13 172.34,-981.13 172.34,-981.13 172.34,-981.13 1238.05,-981.13 1326.75,-981.13 1337.36,-660.62 1338.32,-545.61"/>
<polygon fill="black" stroke="black" points="1341.82,-545.72 1338.38,-535.7 1334.82,-545.68 1341.82,-545.72"/>
<text xml:space="preserve" text-anchor="middle" x="700.59" y="-984.33" font-family="Times New Roman,serif" font-size="14.00">&#39;!&#39;,&#39;&amp;&#39;,&#39;(&#39;,&#39;)&#39;,&#39;,&#39;,&#39;;&#39;,&#39;&lt;&#39;,&#39;&gt;&#39;,&#39;[&#39;,&#39;]&#39;,&#39;{&#39;,&#39;|&#39;,&#39;}&#39;</text>
</g>
<!-- q2 -->
<g id="node5" class="node">
<title>q2</title>
<ellipse fill="none" stroke="black" cx="371.16" cy="-939.13" rx="20.13" ry="20.13"/>
<text xml:space="preserve" text-anchor="middle" x="371.16" y="-934.08" font-family="Times New Roman,serif" font-size="14.00">q2</text>
</g>
<!-- q0&#45;&gt;q2 -->
<g id="edge6" class="edge">
<title>q0&#45;&gt;q2</title>
<path fill="none" stroke="black" d="M68.38,-606.62C68.06,-667.78 70.43,-862.1 112.6,-904.13 173.36,-964.7 285.93,-954.61 339.84,-945.4"/>
<polygon fill="black" stroke="black" points="340.32,-948.87 349.53,-943.63 339.06,-941.99 340.32,-948.87"/>
<text xml:space="preserve" text-anchor="middle" x="173.34" y="-949.01" font-family="Times New Roman,serif" font-size="14.00">&#39;+&#39;</text>
</g>
<!-- q3 -->
<g id="node6" class="node">
<title>q3</title>
<ellipse fill="none" stroke="black" cx="501.5" cy="-894.13" rx="20.13" ry="20.13"/>
<text xml:space="preserve" text-anchor="middle" x="501.5" y="-889.08" font-family="Times New Roman,serif" font-size="14.00">q3</text>
</g>
<!-- q0&#45;&gt;q3 -->
<g id="edge8" class="edge">
<title>q0&#45;&gt;q3</title>
<path fill="none" stroke="black" d="M69.47,-606.53C72.34,-660.71 83.12,-818.4 112.6,-859.13 130.14,-883.36 142.43,-890.13 172.34,-890.13 172.34,-890.13 172.34,-890.13 372.16,-890.13 405.45,-890.13 443.58,-891.49 469.57,-892.63"/>
<polygon fill="black" stroke="black" points="469.28,-896.12 479.42,-893.07 469.59,-889.12 469.28,-896.12"/>
<text xml:space="preserve" text-anchor="middle" x="240.81" y="-893.33" font-family="Times New Roman,serif" font-size="14.00">&#39;&#45;&#39;</text>
</g>
<!-- q4 -->
<g id="node7" class="node">
<title>q4</title>
<ellipse fill="none" stroke="black" cx="700.59" cy="-848.13" rx="20.13" ry="20.13"/>
<text xml:space="preserve" text-anchor="middle" x="700.59" y="-843.08" font-family="Times New Roman,serif" font-size="14.00">q4</text>
</g>
<!-- q0&#45;&gt;q4 -->
<g id="edge4" class="edge">
<title>q0&#45;&gt;q4</title>
<path fill="none" stroke="black" d="M70.16,-606.41C74.53,-653.95 88.19,-780.07 112.6,-813.13 130.49,-837.36 142.22,-845.13 172.34,-845.13 172.34,-845.13 172.34,-845.13 502.5,-845.13 561.3,-845.13 629.95,-846.48 668.74,-847.37"/>
<polygon fill="black" stroke="black" points="668.41,-850.86 678.49,-847.6 668.58,-843.87 668.41,-850.86"/>
<text xml:space="preserve" text-anchor="middle" x="308.29" y="-848.33" font-family="Times New Roman,serif" font-size="14.00">&#39;*&#39;</text>
</g>
<!-- q5 -->
<g id="node8" class="node">
<title>q5</title>
<ellipse fill="none" stroke="black" cx="899.67" cy="-807.13" rx="20.13" ry="20.13"/>
<text xml:space="preserve" text-anchor="middle" x="899.67" y="-802.08" font-family="Times New Roman,serif" font-size="14.00">q5</text>
</g>
<!-- q0&#45;&gt;q5 -->
<g id="edge12" class="edge">
<title>q0&#45;&gt;q5</title>
<path fill="none" stroke="black" d="M69.16,-606.49C71.8,-657.82 86.82,-799.13 172.34,-799.13 172.34,-799.13 172.34,-799.13 701.59,-799.13 760.42,-799.13 829.06,-802.73 867.84,-805.1"/>
<polygon fill="black" stroke="black" points="867.39,-808.58 877.59,-805.72 867.83,-801.6 867.39,-808.58"/>
<text xml:space="preserve" text-anchor="middle" x="371.16" y="-802.33" font-family="Times New Roman,serif" font-size="14.00">&#39;=&#39;</text>
</g>
<!-- q7 -->
<g id="node10" class="node">
<title>q7</title>
<ellipse fill="none" stroke="black" cx="240.81" cy="-753.13" rx="20.13" ry="20.13"/>
<text xml:space="preserve" text-anchor="middle" x="240.81" y="-748.08" font-family="Times New Roman,serif" font-size="14.00">q7</text>
</g>
<!-- q0&#45;&gt;q7 -->
<g id="edge22" class="edge">
<title>q0&#45;&gt;q7</title>
<path fill="none" stroke="black" d="M73.3,-605.73C82.4,-636.21 105.42,-698.57 148.6,-730.13 166.1,-742.92 189.96,-748.63 208.89,-751.16"/>
<polygon fill="black" stroke="black" points="208.4,-754.63 218.72,-752.23 209.15,-747.67 208.4,-754.63"/>
<text xml:space="preserve" text-anchor="middle" x="121.6" y="-716.69" font-family="Times New Roman,serif" font-size="14.00">&#39;S&#39;</text>
</g>
<!-- q12 -->
<g id="node15" class="node">
<title>q12</title>
<ellipse fill="none" stroke="black" cx="173.34" cy="-696.13" rx="24.74" ry="24.74"/>
<text xml:space="preserve" text-anchor="middle" x="173.34" y="-691.08" font-family="Times New Roman,serif" font-size="14.00">q12</text>
</g>
<!-- q0&#45;&gt;q12 -->
<g id="edge24" class="edge">
<title>q0&#45;&gt;q12</title>
<path fill="none" stroke="black" d="M83.02,-603.15C99.76,-620.57 127.63,-649.58 147.79,-670.57"/>
<polygon fill="black" stroke="black" points="145.13,-672.86 154.59,-677.65 150.18,-668.01 145.13,-672.86"/>
<text xml:space="preserve" text-anchor="middle" x="121.6" y="-655" font-family="Times New Roman,serif" font-size="14.00">&#39;V&#39;</text>
</g>
<!-- q19 -->
<g id="node22" class="node">
<title>q19</title>
<ellipse fill="none" stroke="black" cx="173.34" cy="-628.13" rx="24.74" ry="24.74"/>
<text xml:space="preserve" text-anchor="middle" x="173.34" y="-623.08" font-family="Times New Roman,serif" font-size="14.00">q19</text>
</g>
<!-- q0&#45;&gt;q19 -->
<g id="edge18" class="edge">
<title>q0&#45;&gt;q19</title>
<path fill="none" stroke="black" d="M91.62,-597.01C105.55,-602.38 123.55,-609.32 139.02,-615.28"/>
<polygon fill="black" stroke="black" points="137.73,-618.54 148.32,-618.87 140.25,-612.01 137.73,-618.54"/>
<text xml:space="preserve" text-anchor="middle" x="121.6" y="-614.91" font-family="Times New Roman,serif" font-size="14.00">&#39;I&#39;</text>
</g>
<!-- q27 -->
<g id="node30" class="node">
<title>q27</title>
<ellipse fill="none" stroke="black" cx="173.34" cy="-561.13" rx="24.74" ry="24.74"/>
<text xml:space="preserve" text-anchor="middle" x="173.34" y="-556.08" font-family="Times New Roman,serif" font-size="14.00">q27</text>
</g>
<!-- q0&#45;&gt;q27 -->
<g id="edge21" class="edge">
<title>q0&#45;&gt;q27</title>
<path fill="none" stroke="black" d="M93.18,-581.73C106.65,-578.23 123.54,-573.83 138.26,-570"/>
<polygon fill="black" stroke="black" points="138.74,-573.49 147.53,-567.59 136.97,-566.72 138.74,-573.49"/>
<text xml:space="preserve" text-anchor="middle" x="121.6" y="-579.45" font-family="Times New Roman,serif" font-size="14.00">&#39;R&#39;</text>
</g>
<!-- q30 -->
<g id="node33" class="node">
<title>q30</title>
<ellipse fill="none" stroke="black" cx="173.34" cy="-494.13" rx="24.74" ry="24.74"/>
<text xml:space="preserve" text-anchor="middle" x="173.34" y="-489.08" font-family="Times New Roman,serif" font-size="14.00">q30</text>
</g>
<!-- q0&#45;&gt;q30 -->
<g id="edge25" class="edge">
<title>q0&#45;&gt;q30</title>
<path fill="none" stroke="black" d="M84.36,-573.85C100.67,-559.07 126.46,-535.7 145.91,-518.08"/>
<polygon fill="black" stroke="black" points="148.16,-520.77 153.22,-511.46 143.46,-515.58 148.16,-520.77"/>
<text xml:space="preserve" text-anchor="middle" x="121.6" y="-549.96" font-family="Times New Roman,serif" font-size="14.00">&#39;W&#39;</text>
</g>
<!-- q34 -->
<g id="node37" class="node">
<title>q34</title>
<ellipse fill="none" stroke="black" cx="173.34" cy="-427.13" rx="24.74" ry="24.74"/>
<text xml:space="preserve" text-anchor="middle" x="173.34" y="-422.08" font-family="Times New Roman,serif" font-size="14.00">q34</text>
</g>
<!-- q0&#45;&gt;q34 -->
<g id="edge16" class="edge">
<title>q0&#45;&gt;q34</title>
<path fill="none" stroke="black" d="M78.04,-571.13C86.72,-555.68 100.1,-532.37 112.6,-512.63 127.73,-488.73 132.34,-483.28 148.6,-460.13 149.54,-458.8 150.5,-457.43 151.47,-456.06"/>
<polygon fill="black" stroke="black" points="154.12,-458.38 157.08,-448.21 148.42,-454.31 154.12,-458.38"/>
<text xml:space="preserve" text-anchor="middle" x="121.6" y="-515.83" font-family="Times New Roman,serif" font-size="14.00">&#39;E&#39;</text>
</g>
<!-- q37 -->
<g id="node40" class="node">
<title>q37</title>
<ellipse fill="none" stroke="black" cx="173.34" cy="-360.13" rx="24.74" ry="24.74"/>
<text xml:space="preserve" text-anchor="middle" x="173.34" y="-355.08" font-family="Times New Roman,serif" font-size="14.00">q37</text>
</g>
<!-- q0&#45;&gt;q37 -->
<g id="edge17" class="edge">
<title>q0&#45;&gt;q37</title>
<path fill="none" stroke="black" d="M73.87,-570.33C84.77,-534.98 111.87,-454.09 148.6,-393.13 149.44,-391.73 150.33,-390.32 151.24,-388.9"/>
<polygon fill="black" stroke="black" points="153.93,-391.17 156.64,-380.92 148.14,-387.24 153.93,-391.17"/>
<text xml:space="preserve" text-anchor="middle" x="121.6" y="-463.3" font-family="Times New Roman,serif" font-size="14.00">&#39;F&#39;</text>
</g>
<!-- q39 -->
<g id="node42" class="node">
<title>q39</title>
<ellipse fill="none" stroke="black" cx="240.81" cy="-307.13" rx="24.74" ry="24.74"/>
<text xml:space="preserve" text-anchor="middle" x="240.81" y="-302.08" font-family="Times New Roman,serif" font-size="14.00">q39</text>
</g>
<!-- q0&#45;&gt;q39 -->
<g id="edge23" class="edge">
<title>q0&#45;&gt;q39</title>
<path fill="none" stroke="black" d="M67.86,-569.81C66.99,-521.13 72.06,-388.04 148.6,-326.13 164.25,-313.47 186.24,-308.63 204.71,-307"/>
<polygon fill="black" stroke="black" points="204.66,-310.51 214.44,-306.43 204.25,-303.52 204.66,-310.51"/>
<text xml:space="preserve" text-anchor="middle" x="121.6" y="-367.95" font-family="Times New Roman,serif" font-size="14.00">&#39;T&#39;</text>
</g>
<!-- q40 -->
<g id="node43" class="node">
<title>q40</title>
<ellipse fill="none" stroke="black" cx="1102.1" cy="-264.13" rx="24.74" ry="24.74"/>
<text xml:space="preserve" text-anchor="middle" x="1102.1" y="-259.08" font-family="Times New Roman,serif" font-size="14.00">q40</text>
</g>
<!-- q0&#45;&gt;q40 -->
<g id="edge15" class="edge">
<title>q0&#45;&gt;q40</title>
<path fill="none" stroke="black" d="M68.85,-569.82C70.05,-527.49 76.69,-420.35 112.6,-340.13 130.15,-300.92 129.37,-264.13 172.34,-264.13 172.34,-264.13 172.34,-264.13 968.15,-264.13 1001.17,-264.13 1038.82,-264.13 1065.6,-264.13"/>
<polygon fill="black" stroke="black" points="1065.57,-267.63 1075.57,-264.13 1065.57,-260.63 1065.57,-267.63"/>
<text xml:space="preserve" text-anchor="middle" x="501.5" y="-267.33" font-family="Times New Roman,serif" font-size="14.00">&#39;D&#39;</text>
</g>
<!-- q42 -->
<g id="node45" class="node">
<title>q42</title>
<ellipse fill="none" stroke="black" cx="173.34" cy="-211.13" rx="24.74" ry="24.74"/>
<text xml:space="preserve" text-anchor="middle" x="173.34" y="-206.08" font-family="Times New Roman,serif" font-size="14.00">q42</text>
</g>
<!-- q0&#45;&gt;q42 -->
<g id="edge19" class="edge">
<title>q0&#45;&gt;q42</title>
<path fill="none" stroke="black" d="M68.46,-570.08C68.29,-505.46 70.88,-286.62 112.6,-233.63 118.81,-225.75 128.1,-220.62 137.52,-217.3"/>
<polygon fill="black" stroke="black" points="138.35,-220.7 147,-214.58 136.42,-213.97 138.35,-220.7"/>
<text xml:space="preserve" text-anchor="middle" x="121.6" y="-236.83" font-family="Times New Roman,serif" font-size="14.00">&#39;M&#39;</text>
</g>
<!-- q44 -->
<g id="node47" class="node">
<title>q44</title>
<ellipse fill="none" stroke="black" cx="173.34" cy="-144.13" rx="24.74" ry="24.74"/>
<text xml:space="preserve" text-anchor="middle" x="173.34" y="-139.08" font-family="Times New Roman,serif" font-size="14.00">q44</text>
</g>
<!-- q0&#45;&gt;q44 -->
<g id="edge3" class="edge">
<title>q0&#45;&gt;q44</title>
<path fill="none" stroke="black" d="M69,-569.83C70.76,-502.04 79.18,-265.83 112.6,-199.63 119.6,-185.77 131.56,-173.6 142.96,-164.21"/>
<polygon fill="black" stroke="black" points="144.91,-167.13 150.67,-158.23 140.62,-161.6 144.91,-167.13"/>
<text xml:space="preserve" text-anchor="middle" x="121.6" y="-202.83" font-family="Times New Roman,serif" font-size="14.00">&#39;#&#39;</text>
</g>
<!-- q1 -->
<g id="node4" class="node">
<title>q1</title>
<ellipse fill="none" stroke="black" cx="1237.05" cy="-78.13" rx="20.13" ry="20.13"/>
<text xml:space="preserve" text-anchor="middle" x="1237.05" y="-73.08" font-family="Times New Roman,serif" font-size="14.00">q1</text>
</g>
<!-- q1&#45;&gt;q51 -->
<g id="edge11" class="edge">
<title>q1&#45;&gt;q51</title>
<path fill="none" stroke="black" d="M1257.27,-82.08C1269.38,-85.62 1284.24,-92.1 1292.53,-103.63 1333.58,-160.74 1338.39,-374.67 1338.54,-464.75"/>
<polygon fill="black" stroke="black" points="1335.04,-464.59 1338.54,-474.6 1342.04,-464.6 1335.04,-464.59"/>
<text xml:space="preserve" text-anchor="middle" x="1286.16" y="-106.83" font-family="Times New Roman,serif" font-size="14.00">&#39;:&#39;</text>
</g>
<!-- q2&#45;&gt;q51 -->
<g id="edge7" class="edge">
<title>q2&#45;&gt;q51</title>
<path fill="none" stroke="black" d="M391.72,-940.12C416.88,-941.3 461.93,-943.13 500.5,-943.13 500.5,-943.13 500.5,-943.13 1238.05,-943.13 1319.16,-943.13 1334.63,-654.11 1337.58,-545.62"/>
<polygon fill="black" stroke="black" points="1341.07,-545.81 1337.82,-535.72 1334.08,-545.63 1341.07,-545.81"/>
<text xml:space="preserve" text-anchor="middle" x="899.67" y="-946.33" font-family="Times New Roman,serif" font-size="14.00">&#39;+&#39;</text>
</g>
<!-- q3&#45;&gt;q51 -->
<g id="edge9" class="edge">
<title>q3&#45;&gt;q51</title>
<path fill="none" stroke="black" d="M522.08,-894.79C557.49,-895.93 634.56,-898.13 699.59,-898.13 699.59,-898.13 699.59,-898.13 1238.05,-898.13 1310.28,-898.13 1331.11,-645.73 1336.53,-545.47"/>
<polygon fill="black" stroke="black" points="1340.02,-545.71 1337.04,-535.54 1333.03,-545.35 1340.02,-545.71"/>
<text xml:space="preserve" text-anchor="middle" x="967.15" y="-901.33" font-family="Times New Roman,serif" font-size="14.00">&#39;&#45;&#39;</text>
</g>
<!-- q4&#45;&gt;q51 -->
<g id="edge5" class="edge">
<title>q4&#45;&gt;q51</title>
<path fill="none" stroke="black" d="M720.89,-849.51C808.23,-855.43 1166.28,-875.99 1261.78,-823.13 1280.19,-812.94 1283.69,-806.22 1292.53,-787.13 1329.61,-707.09 1337.25,-602.16 1338.45,-545.55"/>
<polygon fill="black" stroke="black" points="1341.95,-545.79 1338.6,-535.74 1334.95,-545.69 1341.95,-545.79"/>
<text xml:space="preserve" text-anchor="middle" x="1034.62" y="-861.27" font-family="Times New Roman,serif" font-size="14.00">&#39;*&#39;</text>
</g>
<!-- q5&#45;&gt;q51 -->
<g id="edge13" class="edge">
<title>q5&#45;&gt;q51</title>
<path fill="none" stroke="black" d="M919.97,-809.16C985.94,-815.76 1201.74,-834.43 1261.78,-803.13 1307.59,-779.26 1327.84,-621.37 1335,-545.59"/>
<polygon fill="black" stroke="black" points="1338.49,-545.95 1335.91,-535.67 1331.51,-545.31 1338.49,-545.95"/>
<text xml:space="preserve" text-anchor="middle" x="1102.1" y="-823.92" font-family="Times New Roman,serif" font-size="14.00">&#39;=&#39;</text>
</g>
<!-- q6 -->
<g id="node9" class="node">
<title>q6</title>
<ellipse fill="none" stroke="black" cx="1237.05" cy="-20.13" rx="20.13" ry="20.13"/>
<text xml:space="preserve" text-anchor="middle" x="1237.05" y="-15.08" font-family="Times New Roman,serif" font-size="14.00">q6</text>
</g>
<!-- q6&#45;&gt;q51 -->
<g id="edge14" class="edge">
<title>q6&#45;&gt;q51</title>
<path fill="none" stroke="black" d="M1254.4,-30.95C1267.12,-40.35 1284,-55.16 1292.53,-72.63 1326.04,-141.18 1335.15,-371.06 1337.5,-464.81"/>
<polygon fill="black" stroke="black" points="1333.99,-464.64 1337.73,-474.56 1340.99,-464.48 1333.99,-464.64"/>
<text xml:space="preserve" text-anchor="middle" x="1286.16" y="-75.83" font-family="Times New Roman,serif" font-size="14.00">&#39;=&#39;</text>
</g>
<!-- q8 -->
<g id="node11" class="node">
<title>q8</title>
<ellipse fill="none" stroke="black" cx="967.15" cy="-759.13" rx="20.13" ry="20.13"/>
<text xml:space="preserve" text-anchor="middle" x="967.15" y="-754.08" font-family="Times New Roman,serif" font-size="14.00">q8</text>
</g>
<!-- q7&#45;&gt;q8 -->
<g id="edge66" class="edge">
<title>q7&#45;&gt;q8</title>
<path fill="none" stroke="black" d="M261.36,-754.86C286.51,-756.93 331.55,-760.13 370.16,-760.13 370.16,-760.13 370.16,-760.13 833.2,-760.13 868.23,-760.13 908.45,-759.78 935.39,-759.49"/>
<polygon fill="black" stroke="black" points="935.3,-762.99 945.26,-759.38 935.22,-756 935.3,-762.99"/>
<text xml:space="preserve" text-anchor="middle" x="501.5" y="-763.33" font-family="Times New Roman,serif" font-size="14.00">&#39;t&#39;</text>
</g>
<!-- q9 -->
<g id="node12" class="node">
<title>q9</title>
<ellipse fill="none" stroke="black" cx="1102.1" cy="-759.13" rx="20.13" ry="20.13"/>
<text xml:space="preserve" text-anchor="middle" x="1102.1" y="-754.08" font-family="Times New Roman,serif" font-size="14.00">q9</text>
</g>
<!-- q8&#45;&gt;q9 -->
<g id="edge27" class="edge">
<title>q8&#45;&gt;q9</title>
<path fill="none" stroke="black" d="M987.77,-759.13C1009.59,-759.13 1045.12,-759.13 1070.59,-759.13"/>
<polygon fill="black" stroke="black" points="1070.32,-762.63 1080.32,-759.13 1070.32,-755.63 1070.32,-762.63"/>
<text xml:space="preserve" text-anchor="middle" x="1034.62" y="-762.33" font-family="Times New Roman,serif" font-size="14.00">&#39;a&#39;</text>
</g>
<!-- q11 -->
<g id="node14" class="node">
<title>q11</title>
<ellipse fill="none" stroke="black" cx="1169.57" cy="-711.13" rx="24.74" ry="24.74"/>
<text xml:space="preserve" text-anchor="middle" x="1169.57" y="-706.08" font-family="Times New Roman,serif" font-size="14.00">q11</text>
</g>
<!-- q8&#45;&gt;q11 -->
<g id="edge51" class="edge">
<title>q8&#45;&gt;q11</title>
<path fill="none" stroke="black" d="M985.15,-749.41C992.55,-745.55 1001.44,-741.37 1009.89,-738.63 1051.21,-725.21 1100.85,-717.95 1133.47,-714.31"/>
<polygon fill="black" stroke="black" points="1133.59,-717.82 1143.17,-713.29 1132.86,-710.86 1133.59,-717.82"/>
<text xml:space="preserve" text-anchor="middle" x="1034.62" y="-741.83" font-family="Times New Roman,serif" font-size="14.00">&#39;o&#39;</text>
</g>
<!-- q10 -->
<g id="node13" class="node">
<title>q10</title>
<ellipse fill="none" stroke="black" cx="1237.05" cy="-769.13" rx="24.74" ry="24.74"/>
<text xml:space="preserve" text-anchor="middle" x="1237.05" y="-764.08" font-family="Times New Roman,serif" font-size="14.00">q10</text>
</g>
<!-- q9&#45;&gt;q10 -->
<g id="edge58" class="edge">
<title>q9&#45;&gt;q10</title>
<path fill="none" stroke="black" d="M1122.43,-760.59C1142.95,-762.13 1175.81,-764.6 1200.92,-766.49"/>
<polygon fill="black" stroke="black" points="1200.45,-769.96 1210.68,-767.22 1200.97,-762.98 1200.45,-769.96"/>
<text xml:space="preserve" text-anchor="middle" x="1169.57" y="-769.1" font-family="Times New Roman,serif" font-size="14.00">&#39;r&#39;</text>
</g>
<!-- q10&#45;&gt;q51 -->
<g id="edge67" class="edge">
<title>q10&#45;&gt;q51</title>
<path fill="none" stroke="black" d="M1258.93,-756.9C1270.58,-749 1284.35,-737.68 1292.53,-724.13 1326.15,-668.46 1335.36,-591.94 1337.71,-545.65"/>
<polygon fill="black" stroke="black" points="1341.2,-545.93 1338.11,-535.79 1334.2,-545.64 1341.2,-545.93"/>
<text xml:space="preserve" text-anchor="middle" x="1286.16" y="-742.34" font-family="Times New Roman,serif" font-size="14.00">&#39;t&#39;</text>
</g>
<!-- q11&#45;&gt;q51 -->
<g id="edge57" class="edge">
<title>q11&#45;&gt;q51</title>
<path fill="none" stroke="black" d="M1194.08,-705.31C1213.37,-699.8 1240.83,-690.27 1261.78,-676.13 1278.4,-664.92 1282.31,-660.38 1292.53,-643.13 1310.83,-612.27 1322.91,-573.14 1330.03,-544.43"/>
<polygon fill="black" stroke="black" points="1333.35,-545.61 1332.26,-535.07 1326.54,-543.99 1333.35,-545.61"/>
<text xml:space="preserve" text-anchor="middle" x="1237.05" y="-702.73" font-family="Times New Roman,serif" font-size="14.00">&#39;p&#39;</text>
</g>
<!-- q13 -->
<g id="node16" class="node">
<title>q13</title>
<ellipse fill="none" stroke="black" cx="308.29" cy="-707.13" rx="24.74" ry="24.74"/>
<text xml:space="preserve" text-anchor="middle" x="308.29" y="-702.08" font-family="Times New Roman,serif" font-size="14.00">q13</text>
</g>
<!-- q12&#45;&gt;q13 -->
<g id="edge28" class="edge">
<title>q12&#45;&gt;q13</title>
<path fill="none" stroke="black" d="M198.41,-698.12C218.93,-699.82 248.7,-702.28 271.92,-704.21"/>
<polygon fill="black" stroke="black" points="271.63,-707.69 281.88,-705.03 272.2,-700.72 271.63,-707.69"/>
<text xml:space="preserve" text-anchor="middle" x="240.81" y="-706.77" font-family="Times New Roman,serif" font-size="14.00">&#39;a&#39;</text>
</g>
<!-- q14 -->
<g id="node17" class="node">
<title>q14</title>
<ellipse fill="none" stroke="black" cx="434.02" cy="-705.13" rx="24.74" ry="24.74"/>
<text xml:space="preserve" text-anchor="middle" x="434.02" y="-700.08" font-family="Times New Roman,serif" font-size="14.00">q14</text>
</g>
<!-- q13&#45;&gt;q14 -->
<g id="edge59" class="edge">
<title>q13&#45;&gt;q14</title>
<path fill="none" stroke="black" d="M333.44,-706.74C351.66,-706.45 376.95,-706.04 397.48,-705.71"/>
<polygon fill="black" stroke="black" points="397.48,-709.21 407.42,-705.54 397.36,-702.21 397.48,-709.21"/>
<text xml:space="preserve" text-anchor="middle" x="371.16" y="-709.63" font-family="Times New Roman,serif" font-size="14.00">&#39;r&#39;</text>
</g>
<!-- q15 -->
<g id="node18" class="node">
<title>q15</title>
<ellipse fill="none" stroke="black" cx="568.97" cy="-703.13" rx="24.74" ry="24.74"/>
<text xml:space="preserve" text-anchor="middle" x="568.97" y="-698.08" font-family="Times New Roman,serif" font-size="14.00">q15</text>
</g>
<!-- q14&#45;&gt;q15 -->
<g id="edge44" class="edge">
<title>q14&#45;&gt;q15</title>
<path fill="none" stroke="black" d="M459.1,-704.77C479.62,-704.46 509.39,-704.01 532.61,-703.66"/>
<polygon fill="black" stroke="black" points="532.62,-707.16 542.56,-703.51 532.51,-700.16 532.62,-707.16"/>
<text xml:space="preserve" text-anchor="middle" x="501.5" y="-707.68" font-family="Times New Roman,serif" font-size="14.00">&#39;i&#39;</text>
</g>
<!-- q16 -->
<g id="node19" class="node">
<title>q16</title>
<ellipse fill="none" stroke="black" cx="832.2" cy="-695.13" rx="24.74" ry="24.74"/>
<text xml:space="preserve" text-anchor="middle" x="832.2" y="-690.08" font-family="Times New Roman,serif" font-size="14.00">q16</text>
</g>
<!-- q15&#45;&gt;q16 -->
<g id="edge29" class="edge">
<title>q15&#45;&gt;q16</title>
<path fill="none" stroke="black" d="M594.08,-702.39C640.35,-700.98 741.78,-697.87 795.76,-696.22"/>
<polygon fill="black" stroke="black" points="795.75,-699.72 805.64,-695.91 795.53,-692.72 795.75,-699.72"/>
<text xml:space="preserve" text-anchor="middle" x="700.59" y="-704.99" font-family="Times New Roman,serif" font-size="14.00">&#39;a&#39;</text>
</g>
<!-- q17 -->
<g id="node20" class="node">
<title>q17</title>
<ellipse fill="none" stroke="black" cx="967.15" cy="-686.13" rx="24.74" ry="24.74"/>
<text xml:space="preserve" text-anchor="middle" x="967.15" y="-681.08" font-family="Times New Roman,serif" font-size="14.00">q17</text>
</g>
<!-- q16&#45;&gt;q17 -->
<g id="edge32" class="edge">
<title>q16&#45;&gt;q17</title>
<path fill="none" stroke="black" d="M857.27,-693.5C877.79,-692.11 907.56,-690.1 930.79,-688.52"/>
<polygon fill="black" stroke="black" points="931,-692.02 940.74,-687.85 930.53,-685.03 931,-692.02"/>
<text xml:space="preserve" text-anchor="middle" x="899.67" y="-695.42" font-family="Times New Roman,serif" font-size="14.00">&#39;b&#39;</text>
</g>
<!-- q18 -->
<g id="node21" class="node">
<title>q18</title>
<ellipse fill="none" stroke="black" cx="1169.57" cy="-657.13" rx="24.74" ry="24.74"/>
<text xml:space="preserve" text-anchor="middle" x="1169.57" y="-652.08" font-family="Times New Roman,serif" font-size="14.00">q18</text>
</g>
<!-- q17&#45;&gt;q18 -->
<g id="edge47" class="edge">
<title>q17&#45;&gt;q18</title>
<path fill="none" stroke="black" d="M990.87,-677.8C996.98,-675.84 1003.62,-673.93 1009.89,-672.63 1051.76,-663.92 1100.9,-660.08 1133.28,-658.4"/>
<polygon fill="black" stroke="black" points="1133.07,-661.91 1142.89,-657.95 1132.74,-654.92 1133.07,-661.91"/>
<text xml:space="preserve" text-anchor="middle" x="1034.62" y="-675.83" font-family="Times New Roman,serif" font-size="14.00">&#39;l&#39;</text>
</g>
<!-- q18&#45;&gt;q51 -->
<g id="edge35" class="edge">
<title>q18&#45;&gt;q51</title>
<path fill="none" stroke="black" d="M1194.68,-657.07C1221.72,-655.73 1265.33,-649.55 1292.53,-625.13 1315.44,-604.57 1326.94,-571.28 1332.68,-544.97"/>
<polygon fill="black" stroke="black" points="1336.08,-545.79 1334.57,-535.3 1329.22,-544.44 1336.08,-545.79"/>
<text xml:space="preserve" text-anchor="middle" x="1237.05" y="-658.64" font-family="Times New Roman,serif" font-size="14.00">&#39;e&#39;</text>
</g>
<!-- q19&#45;&gt;q51 -->
<g id="edge41" class="edge">
<title>q19&#45;&gt;q51</title>
<path fill="none" stroke="black" d="M197.05,-635.91C203.15,-637.65 209.8,-639.25 216.07,-640.13 237.85,-643.2 243.57,-640.6 265.55,-640.13 648.61,-631.91 744.43,-626.92 1126.83,-603.13 1186.9,-599.39 1208.01,-619.14 1261.78,-592.13 1285.15,-580.39 1304.52,-558.13 1317.91,-539.07"/>
<polygon fill="black" stroke="black" points="1320.66,-541.25 1323.34,-531 1314.85,-537.35 1320.66,-541.25"/>
<text xml:space="preserve" text-anchor="middle" x="832.2" y="-625.16" font-family="Times New Roman,serif" font-size="14.00">&#39;f&#39;</text>
</g>
<!-- q20 -->
<g id="node23" class="node">
<title>q20</title>
<ellipse fill="none" stroke="black" cx="308.29" cy="-601.13" rx="24.74" ry="24.74"/>
<text xml:space="preserve" text-anchor="middle" x="308.29" y="-596.08" font-family="Times New Roman,serif" font-size="14.00">q20</text>
</g>
<!-- q19&#45;&gt;q20 -->
<g id="edge50" class="edge">
<title>q19&#45;&gt;q20</title>
<path fill="none" stroke="black" d="M198.11,-623.3C218.81,-619.1 249.09,-612.95 272.52,-608.19"/>
<polygon fill="black" stroke="black" points="273.14,-611.64 282.24,-606.22 271.74,-604.78 273.14,-611.64"/>
<text xml:space="preserve" text-anchor="middle" x="240.81" y="-622.6" font-family="Times New Roman,serif" font-size="14.00">&#39;n&#39;</text>
</g>
<!-- q21 -->
<g id="node24" class="node">
<title>q21</title>
<ellipse fill="none" stroke="black" cx="434.02" cy="-590.13" rx="24.74" ry="24.74"/>
<text xml:space="preserve" text-anchor="middle" x="434.02" y="-585.08" font-family="Times New Roman,serif" font-size="14.00">q21</text>
</g>
<!-- q20&#45;&gt;q21 -->
<g id="edge68" class="edge">
<title>q20&#45;&gt;q21</title>
<path fill="none" stroke="black" d="M333.14,-599.01C351.55,-597.37 377.27,-595.09 398.01,-593.24"/>
<polygon fill="black" stroke="black" points="398.08,-596.75 407.73,-592.38 397.46,-589.78 398.08,-596.75"/>
<text xml:space="preserve" text-anchor="middle" x="371.16" y="-600.46" font-family="Times New Roman,serif" font-size="14.00">&#39;t&#39;</text>
</g>
<!-- q22 -->
<g id="node25" class="node">
<title>q22</title>
<ellipse fill="none" stroke="black" cx="568.97" cy="-584.13" rx="24.74" ry="24.74"/>
<text xml:space="preserve" text-anchor="middle" x="568.97" y="-579.08" font-family="Times New Roman,serif" font-size="14.00">q22</text>
</g>
<!-- q21&#45;&gt;q22 -->
<g id="edge36" class="edge">
<title>q21&#45;&gt;q22</title>
<path fill="none" stroke="black" d="M459.1,-589.04C479.62,-588.12 509.39,-586.78 532.61,-585.73"/>
<polygon fill="black" stroke="black" points="532.73,-589.23 542.56,-585.28 532.42,-582.23 532.73,-589.23"/>
<text xml:space="preserve" text-anchor="middle" x="501.5" y="-591.39" font-family="Times New Roman,serif" font-size="14.00">&#39;e&#39;</text>
</g>
<!-- q23 -->
<g id="node26" class="node">
<title>q23</title>
<ellipse fill="none" stroke="black" cx="832.2" cy="-575.13" rx="24.74" ry="24.74"/>
<text xml:space="preserve" text-anchor="middle" x="832.2" y="-570.08" font-family="Times New Roman,serif" font-size="14.00">q23</text>
</g>
<!-- q22&#45;&gt;q23 -->
<g id="edge42" class="edge">
<title>q22&#45;&gt;q23</title>
<path fill="none" stroke="black" d="M594.08,-583.3C640.35,-581.71 741.78,-578.21 795.76,-576.35"/>
<polygon fill="black" stroke="black" points="795.76,-579.85 805.64,-576.01 795.52,-572.86 795.76,-579.85"/>
<text xml:space="preserve" text-anchor="middle" x="700.59" y="-585.82" font-family="Times New Roman,serif" font-size="14.00">&#39;g&#39;</text>
</g>
<!-- q24 -->
<g id="node27" class="node">
<title>q24</title>
<ellipse fill="none" stroke="black" cx="967.15" cy="-574.13" rx="24.74" ry="24.74"/>
<text xml:space="preserve" text-anchor="middle" x="967.15" y="-569.08" font-family="Times New Roman,serif" font-size="14.00">q24</text>
</g>
<!-- q23&#45;&gt;q24 -->
<g id="edge37" class="edge">
<title>q23&#45;&gt;q24</title>
<path fill="none" stroke="black" d="M857.27,-574.95C877.79,-574.8 907.56,-574.57 930.79,-574.4"/>
<polygon fill="black" stroke="black" points="930.76,-577.9 940.74,-574.32 930.71,-570.9 930.76,-577.9"/>
<text xml:space="preserve" text-anchor="middle" x="899.67" y="-578.01" font-family="Times New Roman,serif" font-size="14.00">&#39;e&#39;</text>
</g>
<!-- q25 -->
<g id="node28" class="node">
<title>q25</title>
<ellipse fill="none" stroke="black" cx="1102.1" cy="-569.13" rx="24.74" ry="24.74"/>
<text xml:space="preserve" text-anchor="middle" x="1102.1" y="-564.08" font-family="Times New Roman,serif" font-size="14.00">q25</text>
</g>
<!-- q24&#45;&gt;q25 -->
<g id="edge60" class="edge">
<title>q24&#45;&gt;q25</title>
<path fill="none" stroke="black" d="M992.22,-573.23C1012.74,-572.45 1042.51,-571.33 1065.74,-570.46"/>
<polygon fill="black" stroke="black" points="1065.83,-573.96 1075.69,-570.09 1065.56,-566.97 1065.83,-573.96"/>
<text xml:space="preserve" text-anchor="middle" x="1034.62" y="-575.71" font-family="Times New Roman,serif" font-size="14.00">&#39;r&#39;</text>
</g>
<!-- q26 -->
<g id="node29" class="node">
<title>q26</title>
<ellipse fill="none" stroke="black" cx="1237.05" cy="-558.13" rx="24.74" ry="24.74"/>
<text xml:space="preserve" text-anchor="middle" x="1237.05" y="-553.08" font-family="Times New Roman,serif" font-size="14.00">q26</text>
</g>
<!-- q25&#45;&gt;q26 -->
<g id="edge26" class="edge">
<title>q25&#45;&gt;q26</title>
<path fill="none" stroke="black" d="M1127.17,-567.14C1147.69,-565.44 1177.46,-562.98 1200.68,-561.06"/>
<polygon fill="black" stroke="black" points="1200.96,-564.55 1210.64,-560.23 1200.39,-557.57 1200.96,-564.55"/>
<text xml:space="preserve" text-anchor="middle" x="1169.57" y="-568.77" font-family="Times New Roman,serif" font-size="14.00">&#39;_&#39;</text>
</g>
<!-- q26&#45;&gt;q51 -->
<g id="edge10" class="edge">
<title>q26&#45;&gt;q51</title>
<path fill="none" stroke="black" d="M1259.3,-546.89C1272.19,-540.08 1288.93,-531.22 1303.69,-523.42"/>
<polygon fill="black" stroke="black" points="1304.97,-526.7 1312.18,-518.93 1301.7,-520.51 1304.97,-526.7"/>
<text xml:space="preserve" text-anchor="middle" x="1286.16" y="-538" font-family="Times New Roman,serif" font-size="14.00">&#39;2&#39;</text>
</g>
<!-- q28 -->
<g id="node31" class="node">
<title>q28</title>
<ellipse fill="none" stroke="black" cx="308.29" cy="-534.13" rx="24.74" ry="24.74"/>
<text xml:space="preserve" text-anchor="middle" x="308.29" y="-529.08" font-family="Times New Roman,serif" font-size="14.00">q28</text>
</g>
<!-- q27&#45;&gt;q28 -->
<g id="edge38" class="edge">
<title>q27&#45;&gt;q28</title>
<path fill="none" stroke="black" d="M198.11,-556.3C218.81,-552.1 249.09,-545.95 272.52,-541.19"/>
<polygon fill="black" stroke="black" points="273.14,-544.64 282.24,-539.22 271.74,-537.78 273.14,-544.64"/>
<text xml:space="preserve" text-anchor="middle" x="240.81" y="-555.6" font-family="Times New Roman,serif" font-size="14.00">&#39;e&#39;</text>
</g>
<!-- q29 -->
<g id="node32" class="node">
<title>q29</title>
<ellipse fill="none" stroke="black" cx="501.5" cy="-520.13" rx="24.74" ry="24.74"/>
<text xml:space="preserve" text-anchor="middle" x="501.5" y="-515.08" font-family="Times New Roman,serif" font-size="14.00">q29</text>
</g>
<!-- q28&#45;&gt;q29 -->
<g id="edge30" class="edge">
<title>q28&#45;&gt;q29</title>
<path fill="none" stroke="black" d="M333.12,-532.39C366.25,-529.96 426.49,-525.55 464.95,-522.73"/>
<polygon fill="black" stroke="black" points="465.14,-526.23 474.86,-522.01 464.63,-519.25 465.14,-526.23"/>
<text xml:space="preserve" text-anchor="middle" x="371.16" y="-534.05" font-family="Times New Roman,serif" font-size="14.00">&#39;a&#39;</text>
</g>
<!-- q29&#45;&gt;q51 -->
<g id="edge33" class="edge">
<title>q29&#45;&gt;q51</title>
<path fill="none" stroke="black" d="M526.46,-518.73C563.54,-516.69 637.1,-513.13 699.59,-513.13 699.59,-513.13 699.59,-513.13 1035.62,-513.13 1130.08,-513.13 1241.07,-509.19 1298.83,-506.84"/>
<polygon fill="black" stroke="black" points="1298.96,-510.34 1308.81,-506.43 1298.67,-503.34 1298.96,-510.34"/>
<text xml:space="preserve" text-anchor="middle" x="967.15" y="-516.33" font-family="Times New Roman,serif" font-size="14.00">&#39;d&#39;</text>
</g>
<!-- q31 -->
<g id="node34" class="node">
<title>q31</title>
<ellipse fill="none" stroke="black" cx="308.29" cy="-467.13" rx="24.74" ry="24.74"/>
<text xml:space="preserve" text-anchor="middle" x="308.29" y="-462.08" font-family="Times New Roman,serif" font-size="14.00">q31</text>
</g>
<!-- q30&#45;&gt;q31 -->
<g id="edge61" class="edge">
<title>q30&#45;&gt;q31</title>
<path fill="none" stroke="black" d="M198.11,-489.3C218.81,-485.1 249.09,-478.95 272.52,-474.19"/>
<polygon fill="black" stroke="black" points="273.14,-477.64 282.24,-472.22 271.74,-470.78 273.14,-477.64"/>
<text xml:space="preserve" text-anchor="middle" x="240.81" y="-488.6" font-family="Times New Roman,serif" font-size="14.00">&#39;r&#39;</text>
</g>
<!-- q32 -->
<g id="node35" class="node">
<title>q32</title>
<ellipse fill="none" stroke="black" cx="434.02" cy="-467.13" rx="24.74" ry="24.74"/>
<text xml:space="preserve" text-anchor="middle" x="434.02" y="-462.08" font-family="Times New Roman,serif" font-size="14.00">q32</text>
</g>
<!-- q31&#45;&gt;q32 -->
<g id="edge45" class="edge">
<title>q31&#45;&gt;q32</title>
<path fill="none" stroke="black" d="M333.44,-467.13C351.66,-467.13 376.95,-467.13 397.48,-467.13"/>
<polygon fill="black" stroke="black" points="397.42,-470.63 407.42,-467.13 397.42,-463.63 397.42,-470.63"/>
<text xml:space="preserve" text-anchor="middle" x="371.16" y="-470.33" font-family="Times New Roman,serif" font-size="14.00">&#39;i&#39;</text>
</g>
<!-- q33 -->
<g id="node36" class="node">
<title>q33</title>
<ellipse fill="none" stroke="black" cx="899.67" cy="-467.13" rx="24.74" ry="24.74"/>
<text xml:space="preserve" text-anchor="middle" x="899.67" y="-462.08" font-family="Times New Roman,serif" font-size="14.00">q33</text>
</g>
<!-- q32&#45;&gt;q33 -->
<g id="edge69" class="edge">
<title>q32&#45;&gt;q33</title>
<path fill="none" stroke="black" d="M458.98,-467.13C535.29,-467.13 772.98,-467.13 863.34,-467.13"/>
<polygon fill="black" stroke="black" points="863.07,-470.63 873.07,-467.13 863.07,-463.63 863.07,-470.63"/>
<text xml:space="preserve" text-anchor="middle" x="568.97" y="-470.33" font-family="Times New Roman,serif" font-size="14.00">&#39;t&#39;</text>
</g>
<!-- q33&#45;&gt;q51 -->
<g id="edge39" class="edge">
<title>q33&#45;&gt;q51</title>
<path fill="none" stroke="black" d="M924.69,-467.13C951.32,-467.13 995.54,-467.13 1033.62,-467.13 1033.62,-467.13 1033.62,-467.13 1238.05,-467.13 1261.02,-467.13 1285.15,-475.97 1303.97,-485.12"/>
<polygon fill="black" stroke="black" points="1302.27,-488.18 1312.77,-489.64 1305.47,-481.96 1302.27,-488.18"/>
<text xml:space="preserve" text-anchor="middle" x="1102.1" y="-470.33" font-family="Times New Roman,serif" font-size="14.00">&#39;e&#39;</text>
</g>
<!-- q35 -->
<g id="node38" class="node">
<title>q35</title>
<ellipse fill="none" stroke="black" cx="308.29" cy="-400.13" rx="24.74" ry="24.74"/>
<text xml:space="preserve" text-anchor="middle" x="308.29" y="-395.08" font-family="Times New Roman,serif" font-size="14.00">q35</text>
</g>
<!-- q34&#45;&gt;q35 -->
<g id="edge48" class="edge">
<title>q34&#45;&gt;q35</title>
<path fill="none" stroke="black" d="M198.11,-422.3C218.81,-418.1 249.09,-411.95 272.52,-407.19"/>
<polygon fill="black" stroke="black" points="273.14,-410.64 282.24,-405.22 271.74,-403.78 273.14,-410.64"/>
<text xml:space="preserve" text-anchor="middle" x="240.81" y="-421.6" font-family="Times New Roman,serif" font-size="14.00">&#39;l&#39;</text>
</g>
<!-- q36 -->
<g id="node39" class="node">
<title>q36</title>
<ellipse fill="none" stroke="black" cx="700.59" cy="-413.13" rx="24.74" ry="24.74"/>
<text xml:space="preserve" text-anchor="middle" x="700.59" y="-408.08" font-family="Times New Roman,serif" font-size="14.00">q36</text>
</g>
<!-- q35&#45;&gt;q36 -->
<g id="edge65" class="edge">
<title>q35&#45;&gt;q36</title>
<path fill="none" stroke="black" d="M333.41,-400.93C399.96,-403.15 586.4,-409.36 664.49,-411.96"/>
<polygon fill="black" stroke="black" points="664,-415.45 674.11,-412.28 664.24,-408.45 664,-415.45"/>
<text xml:space="preserve" text-anchor="middle" x="434.02" y="-408.25" font-family="Times New Roman,serif" font-size="14.00">&#39;s&#39;</text>
</g>
<!-- q36&#45;&gt;q51 -->
<g id="edge40" class="edge">
<title>q36&#45;&gt;q51</title>
<path fill="none" stroke="black" d="M725.5,-411.04C804.32,-404.95 1062.24,-391.31 1261.78,-453.13 1278.73,-458.38 1295.3,-468.79 1308.66,-478.92"/>
<polygon fill="black" stroke="black" points="1306.16,-481.41 1316.17,-484.88 1310.52,-475.93 1306.16,-481.41"/>
<text xml:space="preserve" text-anchor="middle" x="1034.62" y="-416.99" font-family="Times New Roman,serif" font-size="14.00">&#39;e&#39;</text>
</g>
<!-- q38 -->
<g id="node41" class="node">
<title>q38</title>
<ellipse fill="none" stroke="black" cx="1169.57" cy="-376.13" rx="24.74" ry="24.74"/>
<text xml:space="preserve" text-anchor="middle" x="1169.57" y="-371.08" font-family="Times New Roman,serif" font-size="14.00">q38</text>
</g>
<!-- q37&#45;&gt;q38 -->
<g id="edge52" class="edge">
<title>q37&#45;&gt;q38</title>
<path fill="none" stroke="black" d="M198.42,-359.74C272.92,-358.56 506.26,-355.13 699.59,-355.13 699.59,-355.13 699.59,-355.13 1035.62,-355.13 1069.41,-355.13 1107.45,-361.83 1134.15,-367.66"/>
<polygon fill="black" stroke="black" points="1133.21,-371.04 1143.74,-369.83 1134.76,-364.21 1133.21,-371.04"/>
<text xml:space="preserve" text-anchor="middle" x="568.97" y="-358.92" font-family="Times New Roman,serif" font-size="14.00">&#39;o&#39;</text>
</g>
<!-- q38&#45;&gt;q51 -->
<g id="edge62" class="edge">
<title>q38&#45;&gt;q51</title>
<path fill="none" stroke="black" d="M1194.64,-377.32C1222.06,-379.98 1266.42,-388.43 1292.53,-415.13 1306.84,-429.76 1317.61,-449.77 1325.1,-467.21"/>
<polygon fill="black" stroke="black" points="1321.77,-468.3 1328.77,-476.26 1328.25,-465.67 1321.77,-468.3"/>
<text xml:space="preserve" text-anchor="middle" x="1237.05" y="-396.55" font-family="Times New Roman,serif" font-size="14.00">&#39;r&#39;</text>
</g>
<!-- q39&#45;&gt;q51 -->
<g id="edge53" class="edge">
<title>q39&#45;&gt;q51</title>
<path fill="none" stroke="black" d="M265.67,-306.59C394.85,-303.85 1011.37,-293.61 1194.31,-342.13 1243.53,-355.19 1261.66,-360.63 1292.53,-401.13 1307.53,-420.81 1318.82,-446.18 1326.42,-466.93"/>
<polygon fill="black" stroke="black" points="1323.06,-467.91 1329.67,-476.19 1329.66,-465.59 1323.06,-467.91"/>
<text xml:space="preserve" text-anchor="middle" x="832.2" y="-312.02" font-family="Times New Roman,serif" font-size="14.00">&#39;o&#39;</text>
</g>
<!-- q40&#45;&gt;q51 -->
<g id="edge54" class="edge">
<title>q40&#45;&gt;q51</title>
<path fill="none" stroke="black" d="M1126.36,-269.82C1164.13,-279.18 1237.05,-297.75 1261.78,-307.63 1276.19,-313.38 1282.99,-311.91 1292.53,-324.13 1324.33,-364.85 1334.26,-425.03 1337.23,-464.65"/>
<polygon fill="black" stroke="black" points="1333.73,-464.72 1337.84,-474.48 1340.71,-464.29 1333.73,-464.72"/>
<text xml:space="preserve" text-anchor="middle" x="1237.05" y="-310.83" font-family="Times New Roman,serif" font-size="14.00">&#39;o&#39;</text>
</g>
<!-- q41 -->
<g id="node44" class="node">
<title>q41</title>
<ellipse fill="none" stroke="black" cx="1237.05" cy="-232.13" rx="24.74" ry="24.74"/>
<text xml:space="preserve" text-anchor="middle" x="1237.05" y="-227.08" font-family="Times New Roman,serif" font-size="14.00">q41</text>
</g>
<!-- q40&#45;&gt;q41 -->
<g id="edge46" class="edge">
<title>q40&#45;&gt;q41</title>
<path fill="none" stroke="black" d="M1126.56,-258.48C1147.44,-253.46 1178.25,-246.04 1201.88,-240.36"/>
<polygon fill="black" stroke="black" points="1202.44,-243.82 1211.35,-238.08 1200.81,-237.01 1202.44,-243.82"/>
<text xml:space="preserve" text-anchor="middle" x="1169.57" y="-256.98" font-family="Times New Roman,serif" font-size="14.00">&#39;i&#39;</text>
</g>
<!-- q41&#45;&gt;q51 -->
<g id="edge70" class="edge">
<title>q41&#45;&gt;q51</title>
<path fill="none" stroke="black" d="M1260.86,-239.63C1272.08,-244.46 1284.81,-251.89 1292.53,-262.63 1315.4,-294.42 1328.93,-404.47 1334.8,-464.8"/>
<polygon fill="black" stroke="black" points="1331.31,-465.03 1335.73,-474.66 1338.28,-464.37 1331.31,-465.03"/>
<text xml:space="preserve" text-anchor="middle" x="1286.16" y="-265.83" font-family="Times New Roman,serif" font-size="14.00">&#39;v&#39;</text>
</g>
<!-- q43 -->
<g id="node46" class="node">
<title>q43</title>
<ellipse fill="none" stroke="black" cx="1034.62" cy="-190.13" rx="24.74" ry="24.74"/>
<text xml:space="preserve" text-anchor="middle" x="1034.62" y="-185.08" font-family="Times New Roman,serif" font-size="14.00">q43</text>
</g>
<!-- q42&#45;&gt;q43 -->
<g id="edge55" class="edge">
<title>q42&#45;&gt;q43</title>
<path fill="none" stroke="black" d="M198.34,-209.11C224.94,-207.04 269.15,-204.13 307.29,-204.13 307.29,-204.13 307.29,-204.13 900.67,-204.13 934.23,-204.13 972.3,-199.66 999.07,-195.78"/>
<polygon fill="black" stroke="black" points="999.3,-199.28 1008.67,-194.33 998.26,-192.36 999.3,-199.28"/>
<text xml:space="preserve" text-anchor="middle" x="501.5" y="-207.33" font-family="Times New Roman,serif" font-size="14.00">&#39;o&#39;</text>
</g>
<!-- q43&#45;&gt;q51 -->
<g id="edge34" class="edge">
<title>q43&#45;&gt;q51</title>
<path fill="none" stroke="black" d="M1059.04,-184.24C1102.38,-174.72 1196.6,-160.56 1261.78,-198.13 1308.07,-224.81 1328.18,-388.19 1335.16,-465.13"/>
<polygon fill="black" stroke="black" points="1331.65,-465.1 1336.01,-474.75 1338.62,-464.49 1331.65,-465.1"/>
<text xml:space="preserve" text-anchor="middle" x="1169.57" y="-179.43" font-family="Times New Roman,serif" font-size="14.00">&#39;d&#39;</text>
</g>
<!-- q45 -->
<g id="node48" class="node">
<title>q45</title>
<ellipse fill="none" stroke="black" cx="308.29" cy="-142.13" rx="24.74" ry="24.74"/>
<text xml:space="preserve" text-anchor="middle" x="308.29" y="-137.08" font-family="Times New Roman,serif" font-size="14.00">q45</text>
</g>
<!-- q44&#45;&gt;q45 -->
<g id="edge20" class="edge">
<title>q44&#45;&gt;q45</title>
<path fill="none" stroke="black" d="M198.41,-143.77C218.93,-143.46 248.7,-143.01 271.92,-142.66"/>
<polygon fill="black" stroke="black" points="271.93,-146.16 281.88,-142.51 271.82,-139.16 271.93,-146.16"/>
<text xml:space="preserve" text-anchor="middle" x="240.81" y="-146.68" font-family="Times New Roman,serif" font-size="14.00">&#39;P&#39;</text>
</g>
<!-- q46 -->
<g id="node49" class="node">
<title>q46</title>
<ellipse fill="none" stroke="black" cx="434.02" cy="-140.13" rx="24.74" ry="24.74"/>
<text xml:space="preserve" text-anchor="middle" x="434.02" y="-135.08" font-family="Times New Roman,serif" font-size="14.00">q46</text>
</g>
<!-- q45&#45;&gt;q46 -->
<g id="edge63" class="edge">
<title>q45&#45;&gt;q46</title>
<path fill="none" stroke="black" d="M333.44,-141.74C351.66,-141.45 376.95,-141.04 397.48,-140.71"/>
<polygon fill="black" stroke="black" points="397.48,-144.21 407.42,-140.54 397.36,-137.21 397.48,-144.21"/>
<text xml:space="preserve" text-anchor="middle" x="371.16" y="-144.63" font-family="Times New Roman,serif" font-size="14.00">&#39;r&#39;</text>
</g>
<!-- q47 -->
<g id="node50" class="node">
<title>q47</title>
<ellipse fill="none" stroke="black" cx="568.97" cy="-139.13" rx="24.74" ry="24.74"/>
<text xml:space="preserve" text-anchor="middle" x="568.97" y="-134.08" font-family="Times New Roman,serif" font-size="14.00">q47</text>
</g>
<!-- q46&#45;&gt;q47 -->
<g id="edge56" class="edge">
<title>q46&#45;&gt;q47</title>
<path fill="none" stroke="black" d="M459.1,-139.95C479.62,-139.8 509.39,-139.57 532.61,-139.4"/>
<polygon fill="black" stroke="black" points="532.59,-142.9 542.56,-139.32 532.54,-135.9 532.59,-142.9"/>
<text xml:space="preserve" text-anchor="middle" x="501.5" y="-143.01" font-family="Times New Roman,serif" font-size="14.00">&#39;o&#39;</text>
</g>
<!-- q48 -->
<g id="node51" class="node">
<title>q48</title>
<ellipse fill="none" stroke="black" cx="832.2" cy="-139.13" rx="24.74" ry="24.74"/>
<text xml:space="preserve" text-anchor="middle" x="832.2" y="-134.08" font-family="Times New Roman,serif" font-size="14.00">q48</text>
</g>
<!-- q47&#45;&gt;q48 -->
<g id="edge43" class="edge">
<title>q47&#45;&gt;q48</title>
<path fill="none" stroke="black" d="M594.08,-139.13C640.35,-139.13 741.78,-139.13 795.76,-139.13"/>
<polygon fill="black" stroke="black" points="795.64,-142.63 805.64,-139.13 795.64,-135.63 795.64,-142.63"/>
<text xml:space="preserve" text-anchor="middle" x="700.59" y="-142.33" font-family="Times New Roman,serif" font-size="14.00">&#39;g&#39;</text>
</g>
<!-- q49 -->
<g id="node52" class="node">
<title>q49</title>
<ellipse fill="none" stroke="black" cx="967.15" cy="-139.13" rx="24.74" ry="24.74"/>
<text xml:space="preserve" text-anchor="middle" x="967.15" y="-134.08" font-family="Times New Roman,serif" font-size="14.00">q49</text>
</g>
<!-- q48&#45;&gt;q49 -->
<g id="edge64" class="edge">
<title>q48&#45;&gt;q49</title>
<path fill="none" stroke="black" d="M857.27,-139.13C877.79,-139.13 907.56,-139.13 930.79,-139.13"/>
<polygon fill="black" stroke="black" points="930.74,-142.63 940.74,-139.13 930.74,-135.63 930.74,-142.63"/>
<text xml:space="preserve" text-anchor="middle" x="899.67" y="-142.33" font-family="Times New Roman,serif" font-size="14.00">&#39;r&#39;</text>
</g>
<!-- q50 -->
<g id="node53" class="node">
<title>q50</title>
<ellipse fill="none" stroke="black" cx="1169.57" cy="-131.13" rx="24.74" ry="24.74"/>
<text xml:space="preserve" text-anchor="middle" x="1169.57" y="-126.08" font-family="Times New Roman,serif" font-size="14.00">q50</text>
</g>
<!-- q49&#45;&gt;q50 -->
<g id="edge31" class="edge">
<title>q49&#45;&gt;q50</title>
<path fill="none" stroke="black" d="M992.32,-138.17C1027.4,-136.77 1092.64,-134.16 1133.15,-132.54"/>
<polygon fill="black" stroke="black" points="1133.26,-136.04 1143.11,-132.15 1132.98,-129.05 1133.26,-136.04"/>
<text xml:space="preserve" text-anchor="middle" x="1034.62" y="-140.6" font-family="Times New Roman,serif" font-size="14.00">&#39;a&#39;</text>
</g>
<!-- q50&#45;&gt;q51 -->
<g id="edge49" class="edge">
<title>q50&#45;&gt;q51</title>
<path fill="none" stroke="black" d="M1194.65,-129.67C1223.62,-129.42 1271.06,-134.15 1292.53,-165.13 1325.61,-212.86 1334.83,-385.13 1337.35,-464.54"/>
<polygon fill="black" stroke="black" points="1333.85,-464.59 1337.65,-474.49 1340.85,-464.39 1333.85,-464.59"/>
<text xml:space="preserve" text-anchor="middle" x="1237.05" y="-143.97" font-family="Times New Roman,serif" font-size="14.00">&#39;m&#39;</text>
</g>
</g>
</svg>
