<?xml version="1.0" encoding="UTF-8" standalone="no"?>
<!DOCTYPE svg PUBLIC "-//W3C//DTD SVG 1.1//EN"
 "http://www.w3.org/Graphics/SVG/1.1/DTD/svg11.dtd">
<!-- Generated by graphviz version 14.0.5 (20251129.0259)
 -->
<!-- Title: FSM Pages: 1 -->
<svg width="1988pt" height="56pt"
 viewBox="0.00 0.00 1988.00 56.00" xmlns="http://www.w3.org/2000/svg" xmlns:xlink="http://www.w3.org/1999/xlink">
<g id="graph0" class="graph" transform="scale(1 1) rotate(0) translate(4 52.26)">
<title>FSM</title>
<polygon fill="white" stroke="none" points="-4,4 -4,-52.26 1984.16,-52.26 1984.16,4 -4,4"/>
<!-- start -->
<g id="node1" class="node">
<title>start</title>
<ellipse fill="black" stroke="black" cx="1.8" cy="-24.13" rx="1.8" ry="1.8"/>
</g>
<!-- q0 -->
<g id="node2" class="node">
<title>q0</title>
<ellipse fill="none" stroke="black" cx="67.6" cy="-24.13" rx="27" ry="18"/>
<text xml:space="preserve" text-anchor="middle" x="67.6" y="-19.08" font-family="Times New Roman,serif" font-size="14.00">q0</text>
</g>
<!-- start&#45;&gt;q0 -->
<g id="edge1" class="edge">
<title>start&#45;&gt;q0</title>
<path fill="none" stroke="black" d="M3.91,-24.13C7.21,-24.13 17.46,-24.13 28.73,-24.13"/>
<polygon fill="black" stroke="black" points="28.62,-27.63 38.62,-24.13 28.62,-20.63 28.62,-27.63"/>
</g>
<!-- q1 -->
<g id="node4" class="node">
<title>q1</title>
<ellipse fill="none" stroke="black" cx="161.98" cy="-24.13" rx="20.13" ry="20.13"/>
<text xml:space="preserve" text-anchor="middle" x="161.98" y="-19.08" font-family="Times New Roman,serif" font-size="14.00">q1</text>
</g>
<!-- q0&#45;&gt;q1 -->
<g id="edge6" class="edge">
<title>q0&#45;&gt;q1</title>
<path fill="none" stroke="black" d="M94.83,-24.13C105.83,-24.13 118.71,-24.13 130.17,-24.13"/>
<polygon fill="black" stroke="black" points="129.94,-27.63 139.94,-24.13 129.94,-20.63 129.94,-27.63"/>
<text xml:space="preserve" text-anchor="middle" x="118.22" y="-27.33" font-family="Times New Roman,serif" font-size="14.00">&#39;_&#39;</text>
</g>
<!-- q5 -->
<g id="node3" class="node">
<title>q5</title>
<ellipse fill="none" stroke="black" cx="1956.03" cy="-24.13" rx="20.13" ry="20.13"/>
<ellipse fill="none" stroke="black" cx="1956.03" cy="-24.13" rx="24.13" ry="24.13"/>
<text xml:space="preserve" text-anchor="middle" x="1956.03" y="-19.08" font-family="Times New Roman,serif" font-size="14.00">q5</text>
</g>
<!-- q2 -->
<g id="node5" class="node">
<title>q2</title>
<ellipse fill="none" stroke="black" cx="684.49" cy="-24.13" rx="20.13" ry="20.13"/>
<text xml:space="preserve" text-anchor="middle" x="684.49" y="-19.08" font-family="Times New Roman,serif" font-size="14.00">q2</text>
</g>
<!-- q1&#45;&gt;q2 -->
<g id="edge3" class="edge">
<title>q1&#45;&gt;q2</title>
<path fill="none" stroke="black" d="M182.44,-24.13C261.11,-24.13 556.09,-24.13 652.67,-24.13"/>
<polygon fill="black" stroke="black" points="652.43,-27.63 662.43,-24.13 652.43,-20.63 652.43,-27.63"/>
<text xml:space="preserve" text-anchor="middle" x="423.24" y="-27.33" font-family="Times New Roman,serif" font-size="14.00">&#39;A&#39;,&#39;B&#39;,&#39;C&#39;,&#39;D&#39;,&#39;E&#39;,&#39;F&#39;,&#39;G&#39;,&#39;H&#39;,&#39;I&#39;,&#39;J&#39;,&#39;K&#39;,&#39;L&#39;,&#39;M&#39;,&#39;N&#39;,&#39;O&#39;,&#39;P&#39;,&#39;Q&#39;,&#39;R&#39;,&#39;S&#39;,&#39;T&#39;,&#39;U&#39;,&#39;V&#39;,&#39;W&#39;,&#39;X&#39;,&#39;Y&#39;,&#39;Z&#39;</text>
</g>
<!-- q3 -->
<g id="node6" class="node">
<title>q3</title>
<ellipse fill="none" stroke="black" cx="907.01" cy="-24.13" rx="20.13" ry="20.13"/>
<text xml:space="preserve" text-anchor="middle" x="907.01" y="-19.08" font-family="Times New Roman,serif" font-size="14.00">q3</text>
</g>
<!-- q2&#45;&gt;q3 -->
<g id="edge2" class="edge">
<title>q2&#45;&gt;q3</title>
<path fill="none" stroke="black" d="M705.06,-24.13C743.48,-24.13 829.01,-24.13 875.12,-24.13"/>
<polygon fill="black" stroke="black" points="874.97,-27.63 884.97,-24.13 874.97,-20.63 874.97,-27.63"/>
<text xml:space="preserve" text-anchor="middle" x="795.75" y="-27.33" font-family="Times New Roman,serif" font-size="14.00">&#39;0&#39;,&#39;1&#39;,&#39;2&#39;,&#39;3&#39;,&#39;4&#39;,&#39;5&#39;,&#39;6&#39;,&#39;7&#39;,&#39;8&#39;,&#39;9&#39;</text>
</g>
<!-- q4 -->
<g id="node7" class="node">
<title>q4</title>
<ellipse fill="none" stroke="black" cx="1429.52" cy="-24.13" rx="20.13" ry="20.13"/>
<text xml:space="preserve" text-anchor="middle" x="1429.52" y="-19.08" font-family="Times New Roman,serif" font-size="14.00">q4</text>
</g>
<!-- q3&#45;&gt;q4 -->
<g id="edge4" class="edge">
<title>q3&#45;&gt;q4</title>
<path fill="none" stroke="black" d="M927.46,-24.13C1006.13,-24.13 1301.11,-24.13 1397.69,-24.13"/>
<polygon fill="black" stroke="black" points="1397.45,-27.63 1407.45,-24.13 1397.45,-20.63 1397.45,-27.63"/>
<text xml:space="preserve" text-anchor="middle" x="1168.26" y="-27.33" font-family="Times New Roman,serif" font-size="14.00">&#39;A&#39;,&#39;B&#39;,&#39;C&#39;,&#39;D&#39;,&#39;E&#39;,&#39;F&#39;,&#39;G&#39;,&#39;H&#39;,&#39;I&#39;,&#39;J&#39;,&#39;K&#39;,&#39;L&#39;,&#39;M&#39;,&#39;N&#39;,&#39;O&#39;,&#39;P&#39;,&#39;Q&#39;,&#39;R&#39;,&#39;S&#39;,&#39;T&#39;,&#39;U&#39;,&#39;V&#39;,&#39;W&#39;,&#39;X&#39;,&#39;Y&#39;,&#39;Z&#39;</text>
</g>
<!-- q4&#45;&gt;q5 -->
<g id="edge5" class="edge">
<title>q4&#45;&gt;q5</title>
<path fill="none" stroke="black" d="M1450.12,-24.13C1528.4,-24.13 1819.18,-24.13 1920.19,-24.13"/>
<polygon fill="black" stroke="black" points="1920.03,-27.63 1930.03,-24.13 1920.03,-20.63 1920.03,-27.63"/>
<text xml:space="preserve" text-anchor="middle" x="1690.77" y="-27.33" font-family="Times New Roman,serif" font-size="14.00">&#39;A&#39;,&#39;B&#39;,&#39;C&#39;,&#39;D&#39;,&#39;E&#39;,&#39;F&#39;,&#39;G&#39;,&#39;H&#39;,&#39;I&#39;,&#39;J&#39;,&#39;K&#39;,&#39;L&#39;,&#39;M&#39;,&#39;N&#39;,&#39;O&#39;,&#39;P&#39;,&#39;Q&#39;,&#39;R&#39;,&#39;S&#39;,&#39;T&#39;,&#39;U&#39;,&#39;V&#39;,&#39;W&#39;,&#39;X&#39;,&#39;Y&#39;,&#39;Z&#39;</text>
</g>
</g>
</svg>
